<svg width="24" height="24" viewBox="0 0 24 24" fill="none" xmlns="http://www.w3.org/2000/svg">
<path fill-rule="evenodd" clip-rule="evenodd" d="M11.393 19.2839H6.48423C6.06292 19.2839 5.71582 18.9368 5.71582 18.5155L5.71582 5.48448C5.71582 5.06316 6.06292 4.71606 6.48423 4.71606L11.393 4.71607C11.8072 4.71607 12.143 4.38028 12.143 3.96607C12.143 3.55185 11.8072 3.21606 11.393 3.21606H6.48423C5.23449 3.21606 4.21582 4.23474 4.21582 5.48448V18.5155C4.21582 19.7653 5.23449 20.7839 6.48423 20.7839H11.393C11.8072 20.7839 12.143 20.4481 12.143 20.0339C12.143 19.6197 11.8072 19.2839 11.393 19.2839ZM17.3121 6.88232C17.0192 6.58943 16.5443 6.58943 16.2514 6.88232C15.9585 7.17522 15.9585 7.65009 16.2514 7.94299L19.5585 11.2501L9.78421 11.2501C9.37 11.2501 9.03421 11.5858 9.03421 12.0001C9.03421 12.4143 9.37 12.7501 9.78421 12.7501L19.5584 12.7501L16.2514 16.0571C15.9585 16.35 15.9585 16.8248 16.2514 17.1177C16.5443 17.4106 17.0192 17.4106 17.3121 17.1177L21.329 13.1008C21.9352 12.4946 21.9352 11.5055 21.329 10.8993L17.3121 6.88232Z" fill="#1B1E21"/>
</svg>
