<svg width="16" height="16" viewBox="0 0 16 16" fill="none" xmlns="http://www.w3.org/2000/svg">
<g clip-path="url(#clip0_8_240)">
<path d="M2.70426 6.61676L0.99231 7.65465L2.70426 8.62778V6.61676Z" fill="#6143B1"/>
<path d="M14.994 7.64638L13.3119 6.62592V8.60628L14.994 7.64638Z" fill="#6143B1"/>
<path d="M3.64282 0V6.41276V9.16132L7.99951 11.6378L12.3733 9.14183V6.42042V0L3.64282 0ZM8.50536 8.97693H7.52272V7.99432H8.50536V8.97693ZM8.48331 7.13622H7.5448V6.41617V6.00341C7.5448 5.61247 7.81278 5.27216 8.19647 5.17581C8.54662 5.0879 8.7826 4.76118 8.75763 4.39892C8.73226 4.03109 8.43576 3.73462 8.06796 3.70924C7.85786 3.69454 7.65824 3.76521 7.50564 3.90768C7.35282 4.05033 7.26867 4.24391 7.26867 4.45279H6.33016C6.33016 3.98776 6.52518 3.539 6.86527 3.2216C7.21013 2.89972 7.65993 2.7404 8.13256 2.77296C8.96523 2.8304 9.63648 3.50165 9.69391 4.33435C9.74882 5.13045 9.24262 5.85084 8.48334 6.07033V6.41698V7.13622H8.48331Z" fill="#6143B1"/>
<path d="M13.3118 9.68687L8.12445 12.6471L8.00041 12.7179L7.8759 12.6471L2.70432 9.70736L0.531494 8.47226V16H15.4684V8.45618L13.3118 9.68687Z" fill="#6143B1"/>
</g>
<defs>
<clipPath id="clip0_8_240">
<rect width="16" height="16" fill="white"/>
</clipPath>
</defs>
</svg>
